# xmcd
#
# Track frame offsets:
#	150
#	20681
#	41350
#	62872
#	80190
#	97501
#	114662
#	133595
#	153337
#	166064
#	184704
#	203319
#	224165
#	242726
#	261005
#	281011
#	295309
#	313190
#
# Disc length: 4405 seconds
#
# Revision: 1
# Processed by: cddbd v1.5.2PL0 Copyright (c) Steve Scherf et al.
# Submitted via: EasyCDDAExtractor 15.3.0.1
#
DISCID=02113312
DTITLE=陳潔麗 - 心曲
DYEAR=2002
DGENRE=Pop
TTITLE0=天涯歌女
TTITLE1=I Believe
TTITLE2=堆積情感 
TTITLE3=暗湧 
TTITLE4=勇氣
TTITLE5=玫瑰心事
TTITLE6=情非得已
TTITLE7=小村莊 
TTITLE8=是誰沉醉
TTITLE9=只怕不再遇上
TTITLE10=千言萬語
TTITLE11=唯獨你是不可取替
TTITLE12=矜持 
TTITLE13=女孩 
TTITLE14=我願意
TTITLE15=梨渦淺笑 
TTITLE16=印象 
TTITLE17=來夜方長
EXTD=
EXTT0=
EXTT1=
EXTT2=
EXTT3=
EXTT4=
EXTT5=
EXTT6=
EXTT7=
EXTT8=
EXTT9=
EXTT10=
EXTT11=
EXTT12=
EXTT13=
EXTT14=
EXTT15=
EXTT16=
EXTT17=
PLAYORDER=
